<svg width="398" height="139" viewBox="0 0 398 139" fill="none" xmlns="http://www.w3.org/2000/svg">
<g clip-path="url(#clip0)">
<g filter="url(#filter0_d)">
<path d="M230.578 71.153C229.905 76.5832 228.077 81.8063 225.216 86.4706C222.355 91.135 218.529 95.1325 213.994 98.194L212.108 95.4003C216.244 92.6081 219.734 88.9624 222.343 84.7084C224.952 80.4544 226.619 75.6909 227.233 70.7384L230.578 71.153Z" fill="#148E99"/>
<path d="M186.736 90.8683C181.491 89.618 176.787 86.7122 173.321 82.5809C169.855 78.4496 167.811 73.3123 167.491 67.9291C167.172 62.5459 168.594 57.2029 171.547 52.6907C174.5 48.1784 178.827 44.7367 183.888 42.8748L185.019 45.9493C180.618 47.5684 176.856 50.5611 174.288 54.4846C171.72 58.4082 170.484 63.0542 170.762 67.735C171.039 72.4159 172.817 76.883 175.83 80.4753C178.844 84.0677 182.934 86.5944 187.496 87.6816L186.736 90.8683Z" fill="#148E99"/>
<path d="M192.558 50.6666C189.698 50.6666 186.892 51.4443 184.439 52.9164C181.987 54.3886 179.981 56.4998 178.636 59.0242C177.291 61.5486 176.658 64.3911 176.804 67.2477C176.95 70.1042 177.87 72.8673 179.466 75.2412C181.061 77.6151 183.272 79.5105 185.862 80.7247C188.452 81.9388 191.323 82.426 194.168 82.134C197.014 81.8421 199.726 80.782 202.016 79.0672C204.305 77.3525 206.085 75.0475 207.165 72.3991L204.303 71.2318C203.435 73.3613 202.003 75.2147 200.163 76.5934C198.322 77.9722 196.141 78.8246 193.853 79.0594C191.565 79.2941 189.257 78.9024 187.174 77.9261C185.092 76.9499 183.314 75.4258 182.031 73.517C180.748 71.6082 180.008 69.3866 179.891 67.0897C179.773 64.7928 180.282 62.5073 181.364 60.4775C182.445 58.4477 184.058 56.7502 186.03 55.5665C188.002 54.3827 190.258 53.7574 192.558 53.7574V50.6666Z" fill="#148E99"/>
<path d="M136.82 45.4552C133.377 54.599 132.237 64.4492 133.499 74.1377C134.762 83.8261 138.389 93.0552 144.06 101.011C149.731 108.967 157.272 115.406 166.019 119.76C174.765 124.114 184.449 126.249 194.215 125.977L194.133 123.008C184.853 123.266 175.653 121.238 167.342 117.101C159.031 112.964 151.866 106.847 146.478 99.2874C141.09 91.7281 137.644 82.9592 136.444 73.7539C135.245 64.5486 136.328 55.1895 139.599 46.5017L136.82 45.4552Z" fill="#148E99"/>
<path d="M241.087 88.8241C246.901 76.2172 247.582 61.8424 242.984 48.7428C238.386 35.6431 228.871 24.8468 216.453 18.6394L215.019 21.5075C226.692 27.3425 235.637 37.491 239.958 49.8047C244.28 62.1184 243.641 75.6307 238.175 87.4811L241.087 88.8241Z" fill="#148E99"/>
<path d="M205.14 14.5021C196.889 12.5035 188.281 12.4992 180.028 14.4897L180.78 17.6068C188.537 15.7358 196.629 15.7398 204.385 17.6185L205.14 14.5021Z" fill="#148E99"/>
<path d="M197.709 66.4415C197.709 69.2863 195.403 71.5925 192.558 71.5925C189.714 71.5925 187.407 69.2863 187.407 66.4415C187.407 63.5967 189.714 61.2905 192.558 61.2905C195.403 61.2905 197.709 63.5967 197.709 66.4415Z" fill="#148E99"/>
<path d="M195.456 42.6182C195.456 44.2184 194.159 45.5156 192.558 45.5156C190.958 45.5156 189.661 44.2184 189.661 42.6182C189.661 41.018 190.958 39.7208 192.558 39.7208C194.159 39.7208 195.456 41.018 195.456 42.6182Z" fill="#148E99"/>
<path d="M239.561 95.0939C239.561 96.6941 238.264 97.9913 236.664 97.9913C235.063 97.9913 233.766 96.6941 233.766 95.0939C233.766 93.4937 235.063 92.1965 236.664 92.1965C238.264 92.1965 239.561 93.4937 239.561 95.0939Z" fill="#148E99"/>
<path d="M190.949 19.4387V15.4145L194.168 15.5755V19.4387H200.607V22.6581H184.188V19.4387H190.949Z" fill="#148E99"/>
<path d="M209.621 91.2307L202.216 78.6751L199.48 80.2848L206.885 93.0013L209.621 91.2307Z" fill="#148E99"/>
<path d="M232.408 87.1476C233.753 86.4274 235.258 86.0602 236.783 86.0805C238.309 86.1007 239.804 86.5077 241.129 87.2633C242.454 88.0189 243.566 89.0984 244.36 90.4008C245.154 91.7032 245.605 93.1858 245.67 94.7098L242.788 94.8327C242.744 93.7964 242.437 92.7882 241.897 91.9026C241.357 91.017 240.601 90.2829 239.7 89.7691C238.799 89.2553 237.782 88.9785 236.745 88.9648C235.708 88.951 234.684 89.2007 233.77 89.6904L232.408 87.1476Z" fill="#148E99"/>
<path d="M169.573 18.1954C166.894 19.472 164.325 20.9696 161.894 22.6728L163.734 25.2982C166.019 23.6973 168.433 22.2895 170.952 21.0894L169.573 18.1954Z" fill="#148E99"/>
<path d="M166.16 27.1652C166.16 31.2546 162.844 34.5698 158.755 34.5698C154.666 34.5698 151.35 31.2546 151.35 27.1652C151.35 23.0758 154.666 19.7607 158.755 19.7607C162.844 19.7607 166.16 23.0758 166.16 27.1652ZM153.984 27.1652C153.984 29.7999 156.12 31.9357 158.755 31.9357C161.39 31.9357 163.525 29.7999 163.525 27.1652C163.525 24.5306 161.39 22.3947 158.755 22.3947C156.12 22.3947 153.984 24.5306 153.984 27.1652Z" fill="#148E99"/>
<path d="M239.515 68.5248C239.81 61.8731 238.689 55.2346 236.225 49.0489C233.761 42.8632 230.011 37.2716 225.223 32.6443L223.264 34.6722C227.764 39.0218 231.289 44.2779 233.605 50.0925C235.921 55.907 236.975 62.1472 236.698 68.3998L239.515 68.5248Z" fill="#148E99"/>
<path d="M233.444 48.2521L221.855 52.9202L223.303 55.8176L234.571 51.3105L233.444 48.2521Z" fill="#148E99"/>
<path d="M225.396 66.4415C225.396 84.5772 210.694 99.2791 192.558 99.2791C174.423 99.2791 159.721 84.5772 159.721 66.4415C159.721 48.3058 174.423 33.604 192.558 33.604C210.694 33.604 225.396 48.3058 225.396 66.4415ZM162.789 66.4415C162.789 82.8825 176.117 96.2105 192.558 96.2105C208.999 96.2105 222.327 82.8825 222.327 66.4415C222.327 50.0006 208.999 36.6725 192.558 36.6725C176.117 36.6725 162.789 50.0006 162.789 66.4415Z" fill="#148E99"/>
<path d="M153.268 30.0627C143.66 40.4832 138.586 54.2935 139.161 68.4554C139.736 82.6173 145.913 95.9708 156.334 105.578C166.754 115.186 180.564 120.26 194.726 119.685C208.888 119.11 222.242 112.933 231.849 102.512L229.492 100.339C220.461 110.135 207.909 115.941 194.596 116.482C181.284 117.022 168.302 112.252 158.507 103.221C148.711 94.1902 142.904 81.6378 142.364 68.3253C141.823 55.0129 146.593 42.0311 155.624 32.2356L153.268 30.0627Z" fill="#148E99"/>
<path d="M151.028 99.1181L149.258 96.5426L166.481 84.148L168.413 86.5626L151.028 99.1181Z" fill="#148E99"/>
<path d="M239.788 103.549C238.344 104.083 236.787 104.238 235.266 103.999C233.745 103.76 232.311 103.136 231.099 102.186C229.888 101.235 228.94 99.9905 228.347 98.5699C227.753 97.1494 227.533 95.6004 227.708 94.0707L230.535 94.3937C230.415 95.4405 230.566 96.5005 230.972 97.4726C231.379 98.4447 232.027 99.2965 232.856 99.9469C233.685 100.597 234.666 101.024 235.707 101.188C236.748 101.351 237.814 101.245 238.802 100.88L239.788 103.549Z" fill="#148E99"/>
<path d="M184.188 30.3846V27.1652H200.607V30.3846H184.188Z" fill="#148E99"/>
<path d="M190.949 35.0527V30.3846L194.168 30.2236V35.0527H190.949Z" fill="#148E99"/>
</g>
<g filter="url(#filter1_d)">
<mask id="path-2-outside-1" maskUnits="userSpaceOnUse" x="5" y="49" width="108" height="31" fill="black">
<rect fill="white" x="5" y="49" width="108" height="31"/>
<path d="M13.9685 78.6338H12.5722V68.0335H7.39635V78.6338H6V58.4583C6 57.8481 6.02482 57.2256 6.07447 56.5909C6.12412 55.9562 6.29789 55.3826 6.59578 54.8699C6.90608 54.3573 7.38394 53.9423 8.02937 53.625C8.68721 53.2955 9.61811 53.1307 10.8221 53.1307H13.9685V78.6338ZM11.2503 54.3573C10.58 54.3573 10.0029 54.4122 9.51881 54.5221C9.03474 54.6319 8.63135 54.8211 8.30864 55.0896C7.99834 55.346 7.76871 55.6999 7.61977 56.1515C7.47083 56.6031 7.39635 57.1707 7.39635 57.8542V66.8068H12.5722V54.3573H11.2503Z"/>
<path d="M29.7209 78.6338V50H31.1172V78.6338H29.7209Z"/>
<path d="M46.4228 50H47.8191V60.4173C48.0425 60.2952 48.3094 60.1976 48.6197 60.1244C48.93 60.0389 49.3024 59.9962 49.7368 59.9962H52.8832V75.6496C52.8832 76.1256 52.815 76.5711 52.6784 76.9861C52.5419 77.3889 52.3371 77.7428 52.064 78.048C51.791 78.3409 51.4496 78.5728 51.04 78.7437C50.6429 78.9146 50.1836 79 49.6623 79C49.1286 79 48.6569 78.9146 48.2473 78.7437C47.8501 78.5728 47.515 78.3409 47.242 78.048C46.9689 77.7428 46.7641 77.3889 46.6276 76.9861C46.491 76.5711 46.4228 76.1256 46.4228 75.6496V50ZM47.8191 75.7778C47.8191 76.3392 47.9743 76.8152 48.2846 77.2058C48.6073 77.5842 49.0665 77.7734 49.6623 77.7734C50.2457 77.7734 50.6925 77.5842 51.0028 77.2058C51.3255 76.8152 51.4869 76.3392 51.4869 75.7778V61.2229H49.6623C49.2031 61.2229 48.8493 61.3022 48.6011 61.4609C48.3528 61.6073 48.1667 61.7782 48.0425 61.9735C47.9308 62.1688 47.8626 62.3641 47.8377 62.5593C47.8253 62.7546 47.8191 62.8889 47.8191 62.9621V75.7778Z"/>
<path d="M71.2421 61.2229C70.6463 61.2229 70.1871 61.4181 69.8644 61.8087C69.5541 62.1993 69.3989 62.6753 69.3989 63.2367V69.6995H71.2421C71.8255 69.6995 72.2723 69.5103 72.5826 69.1319C72.9053 68.7536 73.0667 68.2776 73.0667 67.7039V61.2229H71.2421ZM74.463 59.9962V67.5758C74.463 68.064 74.3948 68.5156 74.2582 68.9306C74.1217 69.3333 73.9169 69.6873 73.6438 69.9924C73.3708 70.2854 73.0294 70.5173 72.6198 70.6881C72.2227 70.8468 71.7634 70.9261 71.2421 70.9261H69.3989V75.7778C69.3989 76.3392 69.5541 76.8152 69.8644 77.2058C70.1871 77.5842 70.6463 77.7734 71.2421 77.7734C71.8255 77.7734 72.2723 77.5537 72.5826 77.1143C72.9053 76.6749 73.0667 76.1378 73.0667 75.5032L74.4444 75.3018C74.4444 75.8266 74.3762 76.3148 74.2396 76.7664C74.1031 77.218 73.8983 77.6086 73.6252 77.9381C73.3646 78.2677 73.0294 78.524 72.6198 78.7071C72.2227 78.9024 71.7634 79 71.2421 79C70.7084 79 70.2367 78.9146 69.8271 78.7437C69.43 78.5728 69.0948 78.3409 68.8218 78.048C68.5487 77.7428 68.3439 77.3889 68.2074 76.9861C68.0708 76.5711 68.0026 76.1256 68.0026 75.6496V63.3466C68.0026 62.8584 68.0708 62.4129 68.2074 62.0101C68.3439 61.5951 68.5487 61.2412 68.8218 60.9482C69.0948 60.6431 69.43 60.4112 69.8271 60.2525C70.2367 60.0816 70.7084 59.9962 71.2421 59.9962H74.463Z"/>
<path d="M93.3991 61.113C93.2129 61.0642 92.9895 61.0398 92.7288 61.0398C92.1331 61.0398 91.6738 61.2351 91.3511 61.6256C91.0408 62.0162 90.8856 62.4922 90.8856 63.0537V78.6338H89.4893V63.1635C89.4893 62.6753 89.5576 62.2298 89.6941 61.827C89.8306 61.412 90.0354 61.0581 90.3085 60.7652C90.5816 60.46 90.9167 60.2281 91.3139 60.0694C91.7235 59.8986 92.1951 59.8131 92.7288 59.8131C92.9523 59.8131 93.1695 59.8314 93.3805 59.8681C93.5915 59.8925 93.7839 59.9352 93.9576 59.9962L93.3991 61.113Z"/>
<path d="M108.053 61.2229H106.508V59.9962H108.053V57.6894H109.449V59.9962H112V61.2229H109.449V75.7595C109.449 76.3209 109.604 76.7969 109.915 77.1875C110.225 77.5659 110.678 77.755 111.274 77.755H111.888V79H111.274C110.74 79 110.269 78.9146 109.859 78.7437C109.462 78.5728 109.127 78.3409 108.854 78.048C108.593 77.7428 108.394 77.3889 108.258 76.9861C108.121 76.5711 108.053 76.1256 108.053 75.6496V61.2229Z"/>
</mask>
<path d="M13.9685 78.6338H12.5722V68.0335H7.39635V78.6338H6V58.4583C6 57.8481 6.02482 57.2256 6.07447 56.5909C6.12412 55.9562 6.29789 55.3826 6.59578 54.8699C6.90608 54.3573 7.38394 53.9423 8.02937 53.625C8.68721 53.2955 9.61811 53.1307 10.8221 53.1307H13.9685V78.6338ZM11.2503 54.3573C10.58 54.3573 10.0029 54.4122 9.51881 54.5221C9.03474 54.6319 8.63135 54.8211 8.30864 55.0896C7.99834 55.346 7.76871 55.6999 7.61977 56.1515C7.47083 56.6031 7.39635 57.1707 7.39635 57.8542V66.8068H12.5722V54.3573H11.2503Z" fill="#148E99"/>
<path d="M29.7209 78.6338V50H31.1172V78.6338H29.7209Z" fill="#148E99"/>
<path d="M46.4228 50H47.8191V60.4173C48.0425 60.2952 48.3094 60.1976 48.6197 60.1244C48.93 60.0389 49.3024 59.9962 49.7368 59.9962H52.8832V75.6496C52.8832 76.1256 52.815 76.5711 52.6784 76.9861C52.5419 77.3889 52.3371 77.7428 52.064 78.048C51.791 78.3409 51.4496 78.5728 51.04 78.7437C50.6429 78.9146 50.1836 79 49.6623 79C49.1286 79 48.6569 78.9146 48.2473 78.7437C47.8501 78.5728 47.515 78.3409 47.242 78.048C46.9689 77.7428 46.7641 77.3889 46.6276 76.9861C46.491 76.5711 46.4228 76.1256 46.4228 75.6496V50ZM47.8191 75.7778C47.8191 76.3392 47.9743 76.8152 48.2846 77.2058C48.6073 77.5842 49.0665 77.7734 49.6623 77.7734C50.2457 77.7734 50.6925 77.5842 51.0028 77.2058C51.3255 76.8152 51.4869 76.3392 51.4869 75.7778V61.2229H49.6623C49.2031 61.2229 48.8493 61.3022 48.6011 61.4609C48.3528 61.6073 48.1667 61.7782 48.0425 61.9735C47.9308 62.1688 47.8626 62.3641 47.8377 62.5593C47.8253 62.7546 47.8191 62.8889 47.8191 62.9621V75.7778Z" fill="#148E99"/>
<path d="M71.2421 61.2229C70.6463 61.2229 70.1871 61.4181 69.8644 61.8087C69.5541 62.1993 69.3989 62.6753 69.3989 63.2367V69.6995H71.2421C71.8255 69.6995 72.2723 69.5103 72.5826 69.1319C72.9053 68.7536 73.0667 68.2776 73.0667 67.7039V61.2229H71.2421ZM74.463 59.9962V67.5758C74.463 68.064 74.3948 68.5156 74.2582 68.9306C74.1217 69.3333 73.9169 69.6873 73.6438 69.9924C73.3708 70.2854 73.0294 70.5173 72.6198 70.6881C72.2227 70.8468 71.7634 70.9261 71.2421 70.9261H69.3989V75.7778C69.3989 76.3392 69.5541 76.8152 69.8644 77.2058C70.1871 77.5842 70.6463 77.7734 71.2421 77.7734C71.8255 77.7734 72.2723 77.5537 72.5826 77.1143C72.9053 76.6749 73.0667 76.1378 73.0667 75.5032L74.4444 75.3018C74.4444 75.8266 74.3762 76.3148 74.2396 76.7664C74.1031 77.218 73.8983 77.6086 73.6252 77.9381C73.3646 78.2677 73.0294 78.524 72.6198 78.7071C72.2227 78.9024 71.7634 79 71.2421 79C70.7084 79 70.2367 78.9146 69.8271 78.7437C69.43 78.5728 69.0948 78.3409 68.8218 78.048C68.5487 77.7428 68.3439 77.3889 68.2074 76.9861C68.0708 76.5711 68.0026 76.1256 68.0026 75.6496V63.3466C68.0026 62.8584 68.0708 62.4129 68.2074 62.0101C68.3439 61.5951 68.5487 61.2412 68.8218 60.9482C69.0948 60.6431 69.43 60.4112 69.8271 60.2525C70.2367 60.0816 70.7084 59.9962 71.2421 59.9962H74.463Z" fill="#148E99"/>
<path d="M93.3991 61.113C93.2129 61.0642 92.9895 61.0398 92.7288 61.0398C92.1331 61.0398 91.6738 61.2351 91.3511 61.6256C91.0408 62.0162 90.8856 62.4922 90.8856 63.0537V78.6338H89.4893V63.1635C89.4893 62.6753 89.5576 62.2298 89.6941 61.827C89.8306 61.412 90.0354 61.0581 90.3085 60.7652C90.5816 60.46 90.9167 60.2281 91.3139 60.0694C91.7235 59.8986 92.1951 59.8131 92.7288 59.8131C92.9523 59.8131 93.1695 59.8314 93.3805 59.8681C93.5915 59.8925 93.7839 59.9352 93.9576 59.9962L93.3991 61.113Z" fill="#148E99"/>
<path d="M108.053 61.2229H106.508V59.9962H108.053V57.6894H109.449V59.9962H112V61.2229H109.449V75.7595C109.449 76.3209 109.604 76.7969 109.915 77.1875C110.225 77.5659 110.678 77.755 111.274 77.755H111.888V79H111.274C110.74 79 110.269 78.9146 109.859 78.7437C109.462 78.5728 109.127 78.3409 108.854 78.048C108.593 77.7428 108.394 77.3889 108.258 76.9861C108.121 76.5711 108.053 76.1256 108.053 75.6496V61.2229Z" fill="#148E99"/>
<path d="M13.9685 78.6338H12.5722V68.0335H7.39635V78.6338H6V58.4583C6 57.8481 6.02482 57.2256 6.07447 56.5909C6.12412 55.9562 6.29789 55.3826 6.59578 54.8699C6.90608 54.3573 7.38394 53.9423 8.02937 53.625C8.68721 53.2955 9.61811 53.1307 10.8221 53.1307H13.9685V78.6338ZM11.2503 54.3573C10.58 54.3573 10.0029 54.4122 9.51881 54.5221C9.03474 54.6319 8.63135 54.8211 8.30864 55.0896C7.99834 55.346 7.76871 55.6999 7.61977 56.1515C7.47083 56.6031 7.39635 57.1707 7.39635 57.8542V66.8068H12.5722V54.3573H11.2503Z" stroke="#148E99" stroke-width="2" mask="url(#path-2-outside-1)"/>
<path d="M29.7209 78.6338V50H31.1172V78.6338H29.7209Z" stroke="#148E99" stroke-width="2" mask="url(#path-2-outside-1)"/>
<path d="M46.4228 50H47.8191V60.4173C48.0425 60.2952 48.3094 60.1976 48.6197 60.1244C48.93 60.0389 49.3024 59.9962 49.7368 59.9962H52.8832V75.6496C52.8832 76.1256 52.815 76.5711 52.6784 76.9861C52.5419 77.3889 52.3371 77.7428 52.064 78.048C51.791 78.3409 51.4496 78.5728 51.04 78.7437C50.6429 78.9146 50.1836 79 49.6623 79C49.1286 79 48.6569 78.9146 48.2473 78.7437C47.8501 78.5728 47.515 78.3409 47.242 78.048C46.9689 77.7428 46.7641 77.3889 46.6276 76.9861C46.491 76.5711 46.4228 76.1256 46.4228 75.6496V50ZM47.8191 75.7778C47.8191 76.3392 47.9743 76.8152 48.2846 77.2058C48.6073 77.5842 49.0665 77.7734 49.6623 77.7734C50.2457 77.7734 50.6925 77.5842 51.0028 77.2058C51.3255 76.8152 51.4869 76.3392 51.4869 75.7778V61.2229H49.6623C49.2031 61.2229 48.8493 61.3022 48.6011 61.4609C48.3528 61.6073 48.1667 61.7782 48.0425 61.9735C47.9308 62.1688 47.8626 62.3641 47.8377 62.5593C47.8253 62.7546 47.8191 62.8889 47.8191 62.9621V75.7778Z" stroke="#148E99" stroke-width="2" mask="url(#path-2-outside-1)"/>
<path d="M71.2421 61.2229C70.6463 61.2229 70.1871 61.4181 69.8644 61.8087C69.5541 62.1993 69.3989 62.6753 69.3989 63.2367V69.6995H71.2421C71.8255 69.6995 72.2723 69.5103 72.5826 69.1319C72.9053 68.7536 73.0667 68.2776 73.0667 67.7039V61.2229H71.2421ZM74.463 59.9962V67.5758C74.463 68.064 74.3948 68.5156 74.2582 68.9306C74.1217 69.3333 73.9169 69.6873 73.6438 69.9924C73.3708 70.2854 73.0294 70.5173 72.6198 70.6881C72.2227 70.8468 71.7634 70.9261 71.2421 70.9261H69.3989V75.7778C69.3989 76.3392 69.5541 76.8152 69.8644 77.2058C70.1871 77.5842 70.6463 77.7734 71.2421 77.7734C71.8255 77.7734 72.2723 77.5537 72.5826 77.1143C72.9053 76.6749 73.0667 76.1378 73.0667 75.5032L74.4444 75.3018C74.4444 75.8266 74.3762 76.3148 74.2396 76.7664C74.1031 77.218 73.8983 77.6086 73.6252 77.9381C73.3646 78.2677 73.0294 78.524 72.6198 78.7071C72.2227 78.9024 71.7634 79 71.2421 79C70.7084 79 70.2367 78.9146 69.8271 78.7437C69.43 78.5728 69.0948 78.3409 68.8218 78.048C68.5487 77.7428 68.3439 77.3889 68.2074 76.9861C68.0708 76.5711 68.0026 76.1256 68.0026 75.6496V63.3466C68.0026 62.8584 68.0708 62.4129 68.2074 62.0101C68.3439 61.5951 68.5487 61.2412 68.8218 60.9482C69.0948 60.6431 69.43 60.4112 69.8271 60.2525C70.2367 60.0816 70.7084 59.9962 71.2421 59.9962H74.463Z" stroke="#148E99" stroke-width="2" mask="url(#path-2-outside-1)"/>
<path d="M93.3991 61.113C93.2129 61.0642 92.9895 61.0398 92.7288 61.0398C92.1331 61.0398 91.6738 61.2351 91.3511 61.6256C91.0408 62.0162 90.8856 62.4922 90.8856 63.0537V78.6338H89.4893V63.1635C89.4893 62.6753 89.5576 62.2298 89.6941 61.827C89.8306 61.412 90.0354 61.0581 90.3085 60.7652C90.5816 60.46 90.9167 60.2281 91.3139 60.0694C91.7235 59.8986 92.1951 59.8131 92.7288 59.8131C92.9523 59.8131 93.1695 59.8314 93.3805 59.8681C93.5915 59.8925 93.7839 59.9352 93.9576 59.9962L93.3991 61.113Z" stroke="#148E99" stroke-width="2" mask="url(#path-2-outside-1)"/>
<path d="M108.053 61.2229H106.508V59.9962H108.053V57.6894H109.449V59.9962H112V61.2229H109.449V75.7595C109.449 76.3209 109.604 76.7969 109.915 77.1875C110.225 77.5659 110.678 77.755 111.274 77.755H111.888V79H111.274C110.74 79 110.269 78.9146 109.859 78.7437C109.462 78.5728 109.127 78.3409 108.854 78.048C108.593 77.7428 108.394 77.3889 108.258 76.9861C108.121 76.5711 108.053 76.1256 108.053 75.6496V61.2229Z" stroke="#148E99" stroke-width="2" mask="url(#path-2-outside-1)"/>
</g>
<g filter="url(#filter2_d)">
<mask id="path-3-outside-2" maskUnits="userSpaceOnUse" x="269" y="49" width="123" height="31" fill="black">
<rect fill="white" x="269" y="49" width="123" height="31"/>
<path d="M278.17 54.5221C278.17 56.8655 278.054 58.8489 277.821 60.4722C277.588 62.0833 277.201 63.4442 276.661 64.5549C276.134 65.6534 275.435 66.5566 274.564 67.2645C273.705 67.9724 272.644 68.5888 271.38 69.1136V78.6338H270V58.4583C270 57.8481 270.025 57.2256 270.074 56.5909C270.135 55.9562 270.313 55.3826 270.607 54.8699C270.914 54.3573 271.392 53.9423 272.043 53.625C272.693 53.2955 273.613 53.1307 274.803 53.1307H278.17V54.5221ZM271.38 67.7039C271.724 67.5574 272.098 67.3805 272.503 67.173C272.907 66.9655 273.306 66.6909 273.699 66.3491C274.104 65.9952 274.49 65.5497 274.858 65.0126C275.238 64.4756 275.57 63.8043 275.852 62.9987C276.134 62.181 276.361 61.2106 276.533 60.0878C276.704 58.9527 276.79 57.6162 276.79 56.0783V54.3573H275.171C274.521 54.3573 273.956 54.4122 273.478 54.5221C272.999 54.6319 272.601 54.8211 272.282 55.0896C271.975 55.346 271.748 55.6999 271.601 56.1515C271.454 56.6031 271.38 57.1707 271.38 57.8542V67.7039Z"/>
<path d="M295.12 77.4072C295.709 77.4072 296.156 77.2119 296.463 76.8213C296.782 76.4308 296.942 75.9548 296.942 75.3933V68.9306H295.12C294.543 68.9306 294.095 69.1197 293.776 69.4981C293.47 69.8765 293.316 70.3525 293.316 70.9261V77.4072H295.12ZM291.936 78.6338V71.0543C291.936 70.5661 292.004 70.1206 292.139 69.7178C292.274 69.3028 292.476 68.9489 292.746 68.6559C293.016 68.3508 293.347 68.1189 293.74 67.9602C294.145 67.7894 294.605 67.7039 295.12 67.7039H296.942V62.8523C296.942 62.2908 296.782 61.8209 296.463 61.4425C296.156 61.052 295.709 60.8567 295.12 60.8567C294.543 60.8567 294.095 61.0764 293.776 61.5158C293.47 61.9552 293.316 62.4922 293.316 63.1269L291.955 63.3283C291.955 62.8035 292.022 62.3152 292.157 61.8636C292.292 61.412 292.488 61.0215 292.746 60.6919C293.016 60.3624 293.347 60.1061 293.74 59.923C294.145 59.7277 294.605 59.63 295.12 59.63C295.647 59.63 296.107 59.7155 296.5 59.8864C296.905 60.0572 297.242 60.2952 297.512 60.6004C297.782 60.8933 297.984 61.2473 298.119 61.6622C298.254 62.065 298.322 62.5044 298.322 62.9804V75.2835C298.322 75.7717 298.254 76.2233 298.119 76.6383C297.984 77.041 297.782 77.395 297.512 77.7001C297.242 77.9931 296.905 78.225 296.5 78.3958C296.107 78.5545 295.647 78.6338 295.12 78.6338H291.936Z"/>
<path d="M319.651 75.6496C319.651 76.1256 319.583 76.5711 319.448 76.9861C319.313 77.3889 319.111 77.7428 318.841 78.048C318.571 78.3409 318.234 78.5728 317.829 78.7437C317.436 78.9146 316.982 79 316.467 79C315.94 79 315.474 78.9146 315.069 78.7437C314.676 78.5728 314.345 78.3409 314.075 78.048C313.805 77.7428 313.603 77.3889 313.468 76.9861C313.333 76.5711 313.265 76.1256 313.265 75.6496V59.9962H316.394C316.86 59.9962 317.234 60.0328 317.516 60.1061C317.798 60.1671 318.05 60.2586 318.271 60.3807V50H319.651V75.6496ZM318.271 62.9621C318.271 62.8889 318.258 62.7546 318.234 62.5593C318.222 62.3641 318.16 62.1688 318.05 61.9735C317.939 61.7782 317.761 61.6073 317.516 61.4609C317.271 61.3022 316.921 61.2229 316.467 61.2229H314.645V75.7778C314.645 76.3392 314.799 76.8152 315.106 77.2058C315.424 77.5842 315.878 77.7734 316.467 77.7734C317.044 77.7734 317.485 77.5842 317.792 77.2058C318.111 76.8152 318.271 76.3392 318.271 75.7778V62.9621Z"/>
<path d="M334.962 78.6338V59.9962H336.343V78.6338H334.962ZM334.778 53.6799C334.778 53.0697 335.073 52.7645 335.662 52.7645C335.944 52.7645 336.165 52.8439 336.324 53.0025C336.496 53.149 336.582 53.3748 336.582 53.6799C336.582 53.9118 336.502 54.1132 336.343 54.2841C336.195 54.455 335.968 54.5404 335.662 54.5404C335.38 54.5404 335.159 54.455 334.999 54.2841C334.852 54.1132 334.778 53.9118 334.778 53.6799Z"/>
<path d="M351.783 78.6338V50H353.163V78.6338H351.783Z"/>
<path d="M368.383 78.6338V50H369.763V78.6338H368.383Z"/>
<path d="M387.798 77.4072C388.387 77.4072 388.835 77.2119 389.141 76.8213C389.46 76.4308 389.62 75.9548 389.62 75.3933V68.9306H387.798C387.222 68.9306 386.774 69.1197 386.455 69.4981C386.148 69.8765 385.995 70.3525 385.995 70.9261V77.4072H387.798ZM384.615 78.6338V71.0543C384.615 70.5661 384.682 70.1206 384.817 69.7178C384.952 69.3028 385.154 68.9489 385.424 68.6559C385.694 68.3508 386.025 68.1189 386.418 67.9602C386.823 67.7894 387.283 67.7039 387.798 67.7039H389.62V62.8523C389.62 62.2908 389.46 61.8209 389.141 61.4425C388.835 61.052 388.387 60.8567 387.798 60.8567C387.222 60.8567 386.774 61.0764 386.455 61.5158C386.148 61.9552 385.995 62.4922 385.995 63.1269L384.633 63.3283C384.633 62.8035 384.7 62.3152 384.835 61.8636C384.97 61.412 385.167 61.0215 385.424 60.6919C385.694 60.3624 386.025 60.1061 386.418 59.923C386.823 59.7277 387.283 59.63 387.798 59.63C388.326 59.63 388.786 59.7155 389.178 59.8864C389.583 60.0572 389.92 60.2952 390.19 60.6004C390.46 60.8933 390.663 61.2473 390.798 61.6622C390.933 62.065 391 62.5044 391 62.9804V75.2835C391 75.7717 390.933 76.2233 390.798 76.6383C390.663 77.041 390.46 77.395 390.19 77.7001C389.92 77.9931 389.583 78.225 389.178 78.3958C388.786 78.5545 388.326 78.6338 387.798 78.6338H384.615Z"/>
</mask>
<path d="M278.17 54.5221C278.17 56.8655 278.054 58.8489 277.821 60.4722C277.588 62.0833 277.201 63.4442 276.661 64.5549C276.134 65.6534 275.435 66.5566 274.564 67.2645C273.705 67.9724 272.644 68.5888 271.38 69.1136V78.6338H270V58.4583C270 57.8481 270.025 57.2256 270.074 56.5909C270.135 55.9562 270.313 55.3826 270.607 54.8699C270.914 54.3573 271.392 53.9423 272.043 53.625C272.693 53.2955 273.613 53.1307 274.803 53.1307H278.17V54.5221ZM271.38 67.7039C271.724 67.5574 272.098 67.3805 272.503 67.173C272.907 66.9655 273.306 66.6909 273.699 66.3491C274.104 65.9952 274.49 65.5497 274.858 65.0126C275.238 64.4756 275.57 63.8043 275.852 62.9987C276.134 62.181 276.361 61.2106 276.533 60.0878C276.704 58.9527 276.79 57.6162 276.79 56.0783V54.3573H275.171C274.521 54.3573 273.956 54.4122 273.478 54.5221C272.999 54.6319 272.601 54.8211 272.282 55.0896C271.975 55.346 271.748 55.6999 271.601 56.1515C271.454 56.6031 271.38 57.1707 271.38 57.8542V67.7039Z" fill="#148E99"/>
<path d="M295.12 77.4072C295.709 77.4072 296.156 77.2119 296.463 76.8213C296.782 76.4308 296.942 75.9548 296.942 75.3933V68.9306H295.12C294.543 68.9306 294.095 69.1197 293.776 69.4981C293.47 69.8765 293.316 70.3525 293.316 70.9261V77.4072H295.12ZM291.936 78.6338V71.0543C291.936 70.5661 292.004 70.1206 292.139 69.7178C292.274 69.3028 292.476 68.9489 292.746 68.6559C293.016 68.3508 293.347 68.1189 293.74 67.9602C294.145 67.7894 294.605 67.7039 295.12 67.7039H296.942V62.8523C296.942 62.2908 296.782 61.8209 296.463 61.4425C296.156 61.052 295.709 60.8567 295.12 60.8567C294.543 60.8567 294.095 61.0764 293.776 61.5158C293.47 61.9552 293.316 62.4922 293.316 63.1269L291.955 63.3283C291.955 62.8035 292.022 62.3152 292.157 61.8636C292.292 61.412 292.488 61.0215 292.746 60.6919C293.016 60.3624 293.347 60.1061 293.74 59.923C294.145 59.7277 294.605 59.63 295.12 59.63C295.647 59.63 296.107 59.7155 296.5 59.8864C296.905 60.0572 297.242 60.2952 297.512 60.6004C297.782 60.8933 297.984 61.2473 298.119 61.6622C298.254 62.065 298.322 62.5044 298.322 62.9804V75.2835C298.322 75.7717 298.254 76.2233 298.119 76.6383C297.984 77.041 297.782 77.395 297.512 77.7001C297.242 77.9931 296.905 78.225 296.5 78.3958C296.107 78.5545 295.647 78.6338 295.12 78.6338H291.936Z" fill="#148E99"/>
<path d="M319.651 75.6496C319.651 76.1256 319.583 76.5711 319.448 76.9861C319.313 77.3889 319.111 77.7428 318.841 78.048C318.571 78.3409 318.234 78.5728 317.829 78.7437C317.436 78.9146 316.982 79 316.467 79C315.94 79 315.474 78.9146 315.069 78.7437C314.676 78.5728 314.345 78.3409 314.075 78.048C313.805 77.7428 313.603 77.3889 313.468 76.9861C313.333 76.5711 313.265 76.1256 313.265 75.6496V59.9962H316.394C316.86 59.9962 317.234 60.0328 317.516 60.1061C317.798 60.1671 318.05 60.2586 318.271 60.3807V50H319.651V75.6496ZM318.271 62.9621C318.271 62.8889 318.258 62.7546 318.234 62.5593C318.222 62.3641 318.16 62.1688 318.05 61.9735C317.939 61.7782 317.761 61.6073 317.516 61.4609C317.271 61.3022 316.921 61.2229 316.467 61.2229H314.645V75.7778C314.645 76.3392 314.799 76.8152 315.106 77.2058C315.424 77.5842 315.878 77.7734 316.467 77.7734C317.044 77.7734 317.485 77.5842 317.792 77.2058C318.111 76.8152 318.271 76.3392 318.271 75.7778V62.9621Z" fill="#148E99"/>
<path d="M334.962 78.6338V59.9962H336.343V78.6338H334.962ZM334.778 53.6799C334.778 53.0697 335.073 52.7645 335.662 52.7645C335.944 52.7645 336.165 52.8439 336.324 53.0025C336.496 53.149 336.582 53.3748 336.582 53.6799C336.582 53.9118 336.502 54.1132 336.343 54.2841C336.195 54.455 335.968 54.5404 335.662 54.5404C335.38 54.5404 335.159 54.455 334.999 54.2841C334.852 54.1132 334.778 53.9118 334.778 53.6799Z" fill="#148E99"/>
<path d="M351.783 78.6338V50H353.163V78.6338H351.783Z" fill="#148E99"/>
<path d="M368.383 78.6338V50H369.763V78.6338H368.383Z" fill="#148E99"/>
<path d="M387.798 77.4072C388.387 77.4072 388.835 77.2119 389.141 76.8213C389.46 76.4308 389.62 75.9548 389.62 75.3933V68.9306H387.798C387.222 68.9306 386.774 69.1197 386.455 69.4981C386.148 69.8765 385.995 70.3525 385.995 70.9261V77.4072H387.798ZM384.615 78.6338V71.0543C384.615 70.5661 384.682 70.1206 384.817 69.7178C384.952 69.3028 385.154 68.9489 385.424 68.6559C385.694 68.3508 386.025 68.1189 386.418 67.9602C386.823 67.7894 387.283 67.7039 387.798 67.7039H389.62V62.8523C389.62 62.2908 389.46 61.8209 389.141 61.4425C388.835 61.052 388.387 60.8567 387.798 60.8567C387.222 60.8567 386.774 61.0764 386.455 61.5158C386.148 61.9552 385.995 62.4922 385.995 63.1269L384.633 63.3283C384.633 62.8035 384.7 62.3152 384.835 61.8636C384.97 61.412 385.167 61.0215 385.424 60.6919C385.694 60.3624 386.025 60.1061 386.418 59.923C386.823 59.7277 387.283 59.63 387.798 59.63C388.326 59.63 388.786 59.7155 389.178 59.8864C389.583 60.0572 389.92 60.2952 390.19 60.6004C390.46 60.8933 390.663 61.2473 390.798 61.6622C390.933 62.065 391 62.5044 391 62.9804V75.2835C391 75.7717 390.933 76.2233 390.798 76.6383C390.663 77.041 390.46 77.395 390.19 77.7001C389.92 77.9931 389.583 78.225 389.178 78.3958C388.786 78.5545 388.326 78.6338 387.798 78.6338H384.615Z" fill="#148E99"/>
<path d="M278.17 54.5221C278.17 56.8655 278.054 58.8489 277.821 60.4722C277.588 62.0833 277.201 63.4442 276.661 64.5549C276.134 65.6534 275.435 66.5566 274.564 67.2645C273.705 67.9724 272.644 68.5888 271.38 69.1136V78.6338H270V58.4583C270 57.8481 270.025 57.2256 270.074 56.5909C270.135 55.9562 270.313 55.3826 270.607 54.8699C270.914 54.3573 271.392 53.9423 272.043 53.625C272.693 53.2955 273.613 53.1307 274.803 53.1307H278.17V54.5221ZM271.38 67.7039C271.724 67.5574 272.098 67.3805 272.503 67.173C272.907 66.9655 273.306 66.6909 273.699 66.3491C274.104 65.9952 274.49 65.5497 274.858 65.0126C275.238 64.4756 275.57 63.8043 275.852 62.9987C276.134 62.181 276.361 61.2106 276.533 60.0878C276.704 58.9527 276.79 57.6162 276.79 56.0783V54.3573H275.171C274.521 54.3573 273.956 54.4122 273.478 54.5221C272.999 54.6319 272.601 54.8211 272.282 55.0896C271.975 55.346 271.748 55.6999 271.601 56.1515C271.454 56.6031 271.38 57.1707 271.38 57.8542V67.7039Z" stroke="#148E99" stroke-width="2" mask="url(#path-3-outside-2)"/>
<path d="M295.12 77.4072C295.709 77.4072 296.156 77.2119 296.463 76.8213C296.782 76.4308 296.942 75.9548 296.942 75.3933V68.9306H295.12C294.543 68.9306 294.095 69.1197 293.776 69.4981C293.47 69.8765 293.316 70.3525 293.316 70.9261V77.4072H295.12ZM291.936 78.6338V71.0543C291.936 70.5661 292.004 70.1206 292.139 69.7178C292.274 69.3028 292.476 68.9489 292.746 68.6559C293.016 68.3508 293.347 68.1189 293.74 67.9602C294.145 67.7894 294.605 67.7039 295.12 67.7039H296.942V62.8523C296.942 62.2908 296.782 61.8209 296.463 61.4425C296.156 61.052 295.709 60.8567 295.12 60.8567C294.543 60.8567 294.095 61.0764 293.776 61.5158C293.47 61.9552 293.316 62.4922 293.316 63.1269L291.955 63.3283C291.955 62.8035 292.022 62.3152 292.157 61.8636C292.292 61.412 292.488 61.0215 292.746 60.6919C293.016 60.3624 293.347 60.1061 293.74 59.923C294.145 59.7277 294.605 59.63 295.12 59.63C295.647 59.63 296.107 59.7155 296.5 59.8864C296.905 60.0572 297.242 60.2952 297.512 60.6004C297.782 60.8933 297.984 61.2473 298.119 61.6622C298.254 62.065 298.322 62.5044 298.322 62.9804V75.2835C298.322 75.7717 298.254 76.2233 298.119 76.6383C297.984 77.041 297.782 77.395 297.512 77.7001C297.242 77.9931 296.905 78.225 296.5 78.3958C296.107 78.5545 295.647 78.6338 295.12 78.6338H291.936Z" stroke="#148E99" stroke-width="2" mask="url(#path-3-outside-2)"/>
<path d="M319.651 75.6496C319.651 76.1256 319.583 76.5711 319.448 76.9861C319.313 77.3889 319.111 77.7428 318.841 78.048C318.571 78.3409 318.234 78.5728 317.829 78.7437C317.436 78.9146 316.982 79 316.467 79C315.94 79 315.474 78.9146 315.069 78.7437C314.676 78.5728 314.345 78.3409 314.075 78.048C313.805 77.7428 313.603 77.3889 313.468 76.9861C313.333 76.5711 313.265 76.1256 313.265 75.6496V59.9962H316.394C316.86 59.9962 317.234 60.0328 317.516 60.1061C317.798 60.1671 318.05 60.2586 318.271 60.3807V50H319.651V75.6496ZM318.271 62.9621C318.271 62.8889 318.258 62.7546 318.234 62.5593C318.222 62.3641 318.16 62.1688 318.05 61.9735C317.939 61.7782 317.761 61.6073 317.516 61.4609C317.271 61.3022 316.921 61.2229 316.467 61.2229H314.645V75.7778C314.645 76.3392 314.799 76.8152 315.106 77.2058C315.424 77.5842 315.878 77.7734 316.467 77.7734C317.044 77.7734 317.485 77.5842 317.792 77.2058C318.111 76.8152 318.271 76.3392 318.271 75.7778V62.9621Z" stroke="#148E99" stroke-width="2" mask="url(#path-3-outside-2)"/>
<path d="M334.962 78.6338V59.9962H336.343V78.6338H334.962ZM334.778 53.6799C334.778 53.0697 335.073 52.7645 335.662 52.7645C335.944 52.7645 336.165 52.8439 336.324 53.0025C336.496 53.149 336.582 53.3748 336.582 53.6799C336.582 53.9118 336.502 54.1132 336.343 54.2841C336.195 54.455 335.968 54.5404 335.662 54.5404C335.38 54.5404 335.159 54.455 334.999 54.2841C334.852 54.1132 334.778 53.9118 334.778 53.6799Z" stroke="#148E99" stroke-width="2" mask="url(#path-3-outside-2)"/>
<path d="M351.783 78.6338V50H353.163V78.6338H351.783Z" stroke="#148E99" stroke-width="2" mask="url(#path-3-outside-2)"/>
<path d="M368.383 78.6338V50H369.763V78.6338H368.383Z" stroke="#148E99" stroke-width="2" mask="url(#path-3-outside-2)"/>
<path d="M387.798 77.4072C388.387 77.4072 388.835 77.2119 389.141 76.8213C389.46 76.4308 389.62 75.9548 389.62 75.3933V68.9306H387.798C387.222 68.9306 386.774 69.1197 386.455 69.4981C386.148 69.8765 385.995 70.3525 385.995 70.9261V77.4072H387.798ZM384.615 78.6338V71.0543C384.615 70.5661 384.682 70.1206 384.817 69.7178C384.952 69.3028 385.154 68.9489 385.424 68.6559C385.694 68.3508 386.025 68.1189 386.418 67.9602C386.823 67.7894 387.283 67.7039 387.798 67.7039H389.62V62.8523C389.62 62.2908 389.46 61.8209 389.141 61.4425C388.835 61.052 388.387 60.8567 387.798 60.8567C387.222 60.8567 386.774 61.0764 386.455 61.5158C386.148 61.9552 385.995 62.4922 385.995 63.1269L384.633 63.3283C384.633 62.8035 384.7 62.3152 384.835 61.8636C384.97 61.412 385.167 61.0215 385.424 60.6919C385.694 60.3624 386.025 60.1061 386.418 59.923C386.823 59.7277 387.283 59.63 387.798 59.63C388.326 59.63 388.786 59.7155 389.178 59.8864C389.583 60.0572 389.92 60.2952 390.19 60.6004C390.46 60.8933 390.663 61.2473 390.798 61.6622C390.933 62.065 391 62.5044 391 62.9804V75.2835C391 75.7717 390.933 76.2233 390.798 76.6383C390.663 77.041 390.46 77.395 390.19 77.7001C389.92 77.9931 389.583 78.225 389.178 78.3958C388.786 78.5545 388.326 78.6338 387.798 78.6338H384.615Z" stroke="#148E99" stroke-width="2" mask="url(#path-3-outside-2)"/>
</g>
</g>
<defs>
<filter id="filter0_d" x="127" y="10" width="129" height="129" filterUnits="userSpaceOnUse" color-interpolation-filters="sRGB">
<feFlood flood-opacity="0" result="BackgroundImageFix"/>
<feColorMatrix in="SourceAlpha" type="matrix" values="0 0 0 0 0 0 0 0 0 0 0 0 0 0 0 0 0 0 127 0"/>
<feOffset dx="2" dy="5"/>
<feGaussianBlur stdDeviation="4"/>
<feColorMatrix type="matrix" values="0 0 0 0 0 0 0 0 0 0 0 0 0 0 0 0 0 0 0.28 0"/>
<feBlend mode="normal" in2="BackgroundImageFix" result="effect1_dropShadow"/>
<feBlend mode="normal" in="SourceGraphic" in2="effect1_dropShadow" result="shape"/>
</filter>
<filter id="filter1_d" x="0" y="46" width="122" height="45" filterUnits="userSpaceOnUse" color-interpolation-filters="sRGB">
<feFlood flood-opacity="0" result="BackgroundImageFix"/>
<feColorMatrix in="SourceAlpha" type="matrix" values="0 0 0 0 0 0 0 0 0 0 0 0 0 0 0 0 0 0 127 0"/>
<feOffset dx="2" dy="4"/>
<feGaussianBlur stdDeviation="3.5"/>
<feColorMatrix type="matrix" values="0 0 0 0 0 0 0 0 0 0 0 0 0 0 0 0 0 0 0.25 0"/>
<feBlend mode="normal" in2="BackgroundImageFix" result="effect1_dropShadow"/>
<feBlend mode="normal" in="SourceGraphic" in2="effect1_dropShadow" result="shape"/>
</filter>
<filter id="filter2_d" x="264" y="46" width="137" height="45" filterUnits="userSpaceOnUse" color-interpolation-filters="sRGB">
<feFlood flood-opacity="0" result="BackgroundImageFix"/>
<feColorMatrix in="SourceAlpha" type="matrix" values="0 0 0 0 0 0 0 0 0 0 0 0 0 0 0 0 0 0 127 0"/>
<feOffset dx="2" dy="4"/>
<feGaussianBlur stdDeviation="3.5"/>
<feColorMatrix type="matrix" values="0 0 0 0 0 0 0 0 0 0 0 0 0 0 0 0 0 0 0.25 0"/>
<feBlend mode="normal" in2="BackgroundImageFix" result="effect1_dropShadow"/>
<feBlend mode="normal" in="SourceGraphic" in2="effect1_dropShadow" result="shape"/>
</filter>
<clipPath id="clip0">
<rect width="398" height="139" fill="white"/>
</clipPath>
</defs>
</svg>
